<svg xmlns="http://www.w3.org/2000/svg" viewBox="0 0 600 200"><defs><style>.cls-1{fill:#fef7d2;}.cls-2{fill:#cfcab1;}.cls-3,.cls-4{fill:none;stroke:#cfcab1;stroke-miterlimit:10;}.cls-4{stroke-width:2px;}</style></defs><g id="Bg"><rect class="cls-1" width="600" height="200" rx="8"/></g><g id="Quote"><path class="cls-2" d="M309.77,41.65a4.23,4.23,0,0,1,3.2,1.8A6,6,0,0,1,314,46.9a5.4,5.4,0,0,1-1.27,3.52A4.53,4.53,0,0,1,309,52a6.18,6.18,0,0,1-2-.37,5.24,5.24,0,0,1-2-1.27,6.65,6.65,0,0,1-1.47-2.46,11.34,11.34,0,0,1-.58-3.94,13.41,13.41,0,0,1,2.55-8,18.81,18.81,0,0,1,6.47-5.7l2.38,3.28a13.74,13.74,0,0,0-3.81,3.07,10.31,10.31,0,0,0-2.26,4.8Zm16,0a4.23,4.23,0,0,1,3.2,1.8A6,6,0,0,1,330,46.9a5.4,5.4,0,0,1-1.27,3.52A4.53,4.53,0,0,1,325,52a6.18,6.18,0,0,1-2-.37,5.24,5.24,0,0,1-2-1.27,6.65,6.65,0,0,1-1.47-2.46,11.34,11.34,0,0,1-.58-3.94,13.41,13.41,0,0,1,2.55-8,18.81,18.81,0,0,1,6.47-5.7l2.38,3.28a13.74,13.74,0,0,0-3.81,3.07,10.31,10.31,0,0,0-2.26,4.8Z" transform="translate(-0.19 -0.11)"/></g><g id="Separator"><circle class="cls-2" cx="56.54" cy="99.89" r="4.23"/><rect class="cls-2" x="55.93" y="23.89" width="1.22" height="60" rx="0.61"/><rect class="cls-2" x="55.93" y="115.89" width="1.22" height="60" rx="0.61"/><circle class="cls-3" cx="56.54" cy="99.89" r="5.96"/><circle class="cls-4" cx="56.54" cy="99.89" r="10.56"/></g></svg>